<?xml version="1.0" encoding="UTF-8"?>
<svg id="Layer_1" data-name="Layer 1" xmlns="http://www.w3.org/2000/svg" version="1.1" viewBox="0 0 1920 1080">
  <defs>
    <style>
      .cls-1 {
        fill: #fff;
        stroke-width: 0px;
      }
    </style>
  </defs>
  <g>
    <path class="cls-1" d="M329.634,495.161l-35.691-35.691-104.943,104.943,35.691,35.691,104.943-104.943Z"/>
    <path class="cls-1" d="M349.524,580.354l84.597-85.334-35.845-35.537-49.061,49.488"/>
    <path class="cls-1" d="M293.943,550.844v33.996l35.69,35.69v-105.379"/>
    <path class="cls-1" d="M453.855,580.354l84.597-85.334-35.845-35.537-49.061,49.488"/>
    <path class="cls-1" d="M398.274,550.844v33.996l35.691,35.69v-105.379"/>
  </g>
  <g>
    <path class="cls-1" d="M558.584,620.457l26.714-160.913h63.485c12.152,0,22.17,2.16,30.055,6.482,7.882,4.321,13.435,10.424,16.656,18.308,3.221,7.883,3.968,17.142,2.237,27.774-1.78,10.686-5.615,19.853-11.509,27.499-5.894,7.649-13.542,13.529-22.943,17.64-9.401,4.113-20.284,6.167-32.647,6.167h-42.506l4.634-27.342h37.008c6.495,0,12.048-.89,16.656-2.671,4.611-1.781,8.252-4.452,10.921-8.015,2.673-3.561,4.452-7.987,5.345-13.279.835-5.342.51-9.846-.984-13.514-1.491-3.665-4.241-6.454-8.249-8.367-4.007-1.911-9.258-2.868-15.753-2.868h-22.943l-22.157,133.099h-34.02ZM657.583,547.228l27.892,73.229h-37.557l-27.029-73.229h36.693Z"/>
    <path class="cls-1" d="M730.274,620.457l-19.326-160.913h37.164l8.171,111.807h1.335l47.851-111.807h31.822l10.84,112.042h1.416l45.101-112.042h37.164l-72.759,160.913h-33.157l-13.042-105.206h-1.257l-48.163,105.206h-33.16Z"/>
    <path class="cls-1" d="M922.215,620.457h-36.456l82.265-160.913h43.844l28.756,160.913h-36.459l-19.563-124.142h-1.257l-61.13,124.142ZM930.466,557.207h86.113l-4.478,26.556h-86.113l4.478-26.556Z"/>
    <path class="cls-1" d="M1090.342,620.457v-160.913h9.82v151.799h78.572v9.114h-88.393Z"/>
    <path class="cls-1" d="M1208.588,620.457h-10.369l58.061-160.913h11.314l58.065,160.913h-10.369l-52.96-148.264h-.786l-52.956,148.264ZM1223.283,559.878h77.312v9.114h-77.312v-9.114Z"/>
    <path class="cls-1" d="M1339.25,459.543h11.629l50.677,77.627h1.101l50.68-77.627h11.629l-57.909,87.92v72.993h-9.898v-72.993l-57.909-87.92Z"/>
    <path class="cls-1" d="M1495.137,620.457v-160.913h89.571v9.114h-79.751v66.706h74.958v9.116h-74.958v66.864h81.635v9.114h-91.455Z"/>
    <path class="cls-1" d="M1625.325,620.457v-160.913h49.576c10.161,0,18.91,1.991,26.243,5.97,7.333,3.981,12.967,9.496,16.893,16.539,3.929,7.045,5.894,15.231,5.894,24.554,0,9.22-1.965,17.325-5.894,24.317-3.926,6.993-9.544,12.454-16.851,16.383-7.31,3.928-16.042,5.893-26.204,5.893h-44.393v-9.194h44.156c8.275,0,15.347-1.544,21.216-4.636,5.865-3.09,10.369-7.425,13.513-13.003,3.144-5.579,4.715-12.165,4.715-19.761,0-7.648-1.572-14.312-4.715-19.996-3.144-5.683-7.661-10.096-13.555-13.24-5.891-3.142-12.977-4.714-21.251-4.714h-39.522v151.799h-9.82ZM1691.401,547.543l39.599,72.914h-11.314l-39.362-72.914h11.077Z"/>
  </g>
</svg>